<svg width="74" height="82" viewBox="0 0 74 82" fill="none" xmlns="http://www.w3.org/2000/svg">
<path d="M35.7738 0C27.2363 0 18.4009 1.38983 12.3452 5.06295C2.51716 11.1186 -0.361774 22.9322 0.0353209 33.8523C0.333142 43.2833 2.81499 53.4092 9.56559 60.3583C15.9191 67.0097 29.0232 69.9879 38.0571 69.9879C38.4542 69.9879 38.8513 70.2857 38.8513 70.7821V80.3124C38.8513 81.2058 39.5462 82 40.539 82C40.6382 82 40.6382 82 40.7375 82C41.1346 82 41.4324 81.8015 41.631 81.6029C46.0983 77.7312 50.6649 73.7603 55.0329 69.7893C59.2024 65.9177 63.9675 61.9467 67.1443 57.2809C73.9942 47.4528 75.0862 33.6538 72.8029 22.138C70.6189 11.1186 62.7763 3.87167 51.8562 1.58838C47.1903 0.59564 41.5317 0 35.7738 0Z" fill="white"/>
</svg>
