<svg width="48" height="48" viewBox="0 0 48 48" fill="none" xmlns="http://www.w3.org/2000/svg">
<path d="M23.3639 9C20.1745 9 16.874 9.51919 14.6118 10.8913C10.9403 13.1535 9.86485 17.5667 10.0132 21.6461C10.1245 25.1692 11.0516 28.9519 13.5734 31.5478C15.9468 34.0325 20.8421 35.1451 24.2168 35.1451C24.3652 35.1451 24.5135 35.2563 24.5135 35.4418V39.002C24.5135 39.3357 24.7731 39.6324 25.144 39.6324C25.1811 39.6324 25.1811 39.6324 25.2181 39.6324C25.3665 39.6324 25.4777 39.5582 25.5519 39.4841C27.2207 38.0377 28.9267 36.5543 30.5584 35.0709C32.116 33.6246 33.8961 32.1412 35.0828 30.3982C37.6417 26.7267 38.0496 21.5719 37.1967 17.27C36.3808 13.1535 33.4511 10.4463 29.3717 9.59336C27.6287 9.22251 25.5148 9 23.3639 9Z" fill="white"/>
</svg>
