<?xml version="1.0" encoding="UTF-8"?>
<svg width="81px" height="91px" viewBox="0 0 81 91" version="1.1" xmlns="http://www.w3.org/2000/svg" xmlns:xlink="http://www.w3.org/1999/xlink">
    <!-- Generator: Sketch 46.2 (44496) - http://www.bohemiancoding.com/sketch -->
    <title>Artboard</title>
    <desc>Created with Sketch.</desc>
    <defs></defs>
    <g id="Page-1" stroke="none" stroke-width="1" fill="none" fill-rule="evenodd">
        <g id="Artboard" fill="#FFFFFF">
            <path d="M39.5671424,0 C30.1175507,0 20.3241813,1.52533333 13.6505952,5.67233333 C2.82589238,12.3933333 -0.341160402,25.519 0.0284007091,37.6046667 C0.346395154,48.0566667 3.12669793,59.28 10.5136229,67.002 C17.5610674,74.3643333 32.0513007,77.675 41.9306146,77.675 C42.3775257,77.675 42.8502202,78 42.8502202,78.6023333 L42.8502202,89.1496667 C42.8502202,90.1896667 43.6538007,91 44.685134,91 C44.7452952,91 44.801159,90.987 44.8570229,90.9826667 C45.2480702,90.948 45.5918479,90.8006667 45.8668702,90.571 C50.8473507,86.281 55.823534,81.913 60.6278285,77.4236667 C65.2344507,73.1163333 70.4512785,68.692 74.0523507,63.5353333 C81.6498396,52.6586667 82.7757118,37.2796667 80.2575396,24.531 C77.8339063,12.2633333 69.1921924,4.277 57.0783229,1.73333333 C52.0935452,0.689 45.9098424,0 39.5671424,0 M39.5671424,4.41566667 C45.2437729,4.41566667 51.143859,4.99633333 56.1887979,6.05366667 C66.923259,8.307 73.9449202,15.1753333 75.9646146,25.3933333 C77.1979174,31.6376667 77.4213729,38.1203333 76.6134952,44.1393333 C75.7196729,50.7736667 73.652709,56.4416667 70.4727646,60.9916667 C67.7483257,64.896 63.8206646,68.5056667 60.0219202,71.9983333 C59.2226368,72.7306667 58.4276507,73.463 57.6498535,74.1866667 C54.121834,77.4886667 50.5508424,80.6693333 47.2247924,83.5726667 L47.2247924,78.6023333 C47.2247924,75.6556667 44.8527257,73.2636667 41.9306146,73.2636667 C32.5540757,73.2636667 19.4604396,69.992 13.6634868,63.9383333 C6.44845071,56.394 4.64361738,45.3786667 4.40297293,37.4703333 C4.17092293,29.8176667 5.36125349,16.003 15.949609,9.42933333 C21.1535452,6.19666667 29.5417229,4.41566667 39.5671424,4.41566667" id="Fill-20"></path>
        </g>
    </g>
</svg>