<?xml version="1.0" encoding="UTF-8"?>
<svg width="24px" height="24px" viewBox="0 0 24 24" version="1.1" xmlns="http://www.w3.org/2000/svg" xmlns:xlink="http://www.w3.org/1999/xlink">
    <!-- Generator: Sketch 46.2 (44496) - http://www.bohemiancoding.com/sketch -->
    <title>Icon / Close</title>
    <desc>Created with Sketch.</desc>
    <defs>
        <path d="M15.2492384,11.8111088 L23.2306105,3.76834158 C23.5989815,3.39997056 23.5989815,2.84741403 23.2306105,2.47904301 L22.0027071,1.18974444 C21.634336,0.821373421 21.0817795,0.821373421 20.7134085,1.18974444 L12.6706412,9.23251171 C12.4250605,9.47809239 12.0566895,9.47809239 11.8111088,9.23251171 L3.76834158,1.12834927 C3.39997056,0.759978251 2.84741403,0.759978251 2.47904301,1.12834927 L1.18974444,2.41764784 C0.821373421,2.78601886 0.821373421,3.33857539 1.18974444,3.70694641 L9.23251171,11.7497137 C9.47809239,11.9952944 9.47809239,12.3636654 9.23251171,12.6092461 L1.12834927,20.7134085 C0.759978251,21.0817795 0.759978251,21.634336 1.12834927,22.0027071 L2.41764784,23.2920056 C2.78601886,23.6603766 3.33857539,23.6603766 3.70694641,23.2920056 L11.7497137,15.2492384 C11.9952944,15.0036577 12.3636654,15.0036577 12.6092461,15.2492384 L20.6520133,23.2920056 C21.0203843,23.6603766 21.5729409,23.6603766 21.9413119,23.2920056 L23.2306105,22.0027071 C23.5989815,21.634336 23.5989815,21.0817795 23.2306105,20.7134085 L15.2492384,12.6706412 C15.0036577,12.4250605 15.0036577,12.0566895 15.2492384,11.8111088 L15.2492384,11.8111088 Z" id="path-1"></path>
    </defs>
    <g id="Page-1" stroke="none" stroke-width="1" fill="none" fill-rule="evenodd">
        <g id="Icon-/-Close">
            <g>
                <mask id="mask-2" fill="white">
                    <use xlink:href="#path-1"></use>
                </mask>
                <use id="Mask" fill="#FFFFFF" xlink:href="#path-1"></use>
            </g>
        </g>
    </g>
</svg>